<svg xmlns="http://www.w3.org/2000/svg" width="200" height="200" viewBox="0 0 200 200">
    <g transform="translate(12,12)">
        <rect x="0" y="0" height="176" width="176" fill="#FFCC00"/>
        <rect x="16" y="16" height="16" width="40" fill="#000000"/>
        <rect x="120" y="16" height="16" width="40" fill="#000000"/>
        <rect x="120" y="32" height="48" width="8" fill="#000000"/>
        <rect x="56" y="80" height="16" width="72" fill="#000000"/>
        <rect x="88" y="96" height="16" width="8" fill="#000000"/>
        <rect x="72" y="112" height="16" width="40" fill="#000000"/>
        <rect x="0" y="160" height="16" width="8" fill="#000000"/>
        <rect x="16" y="160" height="16" width="8" fill="#000000"/>
        <rect x="32" y="152" height="24" width="8" fill="#000000"/>
        <rect x="48" y="160" height="8" width="8" fill="#000000"/>
        <rect x="64" y="160" height="16" width="8" fill="#000000"/>
        <rect x="72" y="160" height="8" width="8" fill="#000000"/>
        <rect x="80" y="152" height="24" width="8" fill="#000000"/>
        <rect x="96" y="152" height="24" width="8" fill="#000000"/>
        <rect x="104" y="160" height="8" width="8" fill="#000000"/>
        <rect x="112" y="160" height="16" width="8" fill="#000000"/>
        <rect x="128" y="160" height="8" width="8" fill="#000000"/>
        <rect x="144" y="152" height="24" width="8" fill="#000000"/>
        <rect x="160" y="160" height="16" width="8" fill="#000000"/>
    </g>
</svg>
